<?xml version="1.0" encoding="utf-8"?>
<!-- Generator: Adobe Illustrator 27.5.0, SVG Export Plug-In . SVG Version: 6.00 Build 0)  -->
<svg version="1.1" id="BACKGROUND" xmlns="http://www.w3.org/2000/svg" xmlns:xlink="http://www.w3.org/1999/xlink" x="0px" y="0px"
	 viewBox="0 0 750 500" style="enable-background:new 0 0 750 500;" xml:space="preserve">
<g>
	<defs>
		<rect id="SVGID_1_" width="750" height="500"/>
	</defs>
	<clipPath id="SVGID_00000063621678022431969150000002954123262580109184_">
		<use xlink:href="#SVGID_1_"  style="overflow:visible;"/>
	</clipPath>
	
		<linearGradient id="SVGID_00000123417608629739527990000008042326164834073498_" gradientUnits="userSpaceOnUse" x1="-241.303" y1="643.5953" x2="931.4349" y2="-105.3612">
		<stop  offset="0.0047" style="stop-color:#E8AD8A"/>
		<stop  offset="0.9974" style="stop-color:#D7386E"/>
	</linearGradient>
	
		<rect style="clip-path:url(#SVGID_00000063621678022431969150000002954123262580109184_);fill:url(#SVGID_00000123417608629739527990000008042326164834073498_);" width="750" height="500"/>
	<g style="opacity:0.5;clip-path:url(#SVGID_00000063621678022431969150000002954123262580109184_);">
		<path style="fill:none;stroke:#FFFFFF;stroke-width:0.6395;stroke-miterlimit:10;" d="M72.836-79.932
			C135.141,138.071,333.597,75.911,530.376,39.152c269.159-50.28,378.6,57.071,323.798,203.06
			c-91.451,243.615,146.33,234.754,244.023,205.693"/>
		<path style="fill:none;stroke:#FFFFFF;stroke-width:0.6395;stroke-miterlimit:10;" d="M75.898-82.664
			C137.041,133.327,332.011,76.089,526.901,42.139c79.397-13.819,145.095-14.15,197.114-4.428
			c121.95,22.913,165.087,105.517,128.032,207.093c-88.141,241.35,146.476,234.773,243.128,208.036"/>
		<path style="fill:none;stroke:#FFFFFF;stroke-width:0.6395;stroke-miterlimit:10;" d="M78.96-85.396
			C138.941,128.583,330.424,76.266,523.425,45.126c78.632-12.662,144.032-12.333,196.361-2.733
			C841.773,65.005,885.548,146.754,849.92,247.396c-84.831,239.085,146.622,234.792,242.234,210.379"/>
		<path style="fill:none;stroke:#FFFFFF;stroke-width:0.6395;stroke-miterlimit:10;" d="M82.022-88.127
			C140.842,123.84,328.838,76.443,519.95,48.113c77.867-11.506,142.969-10.516,195.609-1.039
			C837.582,69.386,881.994,150.28,847.793,249.989c-81.521,236.82,146.768,234.81,241.339,212.722"/>
		<path style="fill:none;stroke:#FFFFFF;stroke-width:0.6395;stroke-miterlimit:10;" d="M85.084-90.859
			C142.742,119.096,327.251,76.621,516.474,51.1c77.102-10.35,141.907-8.699,194.857,0.655
			c122.061,22.012,167.11,102.051,134.335,200.826C767.455,487.137,992.58,487.41,1086.11,467.647"/>
		<path style="fill:none;stroke:#FFFFFF;stroke-width:0.6395;stroke-miterlimit:10;" d="M88.146-93.591
			C144.642,114.352,325.664,76.798,512.998,54.086c76.337-9.194,140.864-6.998,194.104,2.35
			c122.145,21.446,167.785,100.896,136.436,198.738c-74.901,232.291,147.06,234.848,239.55,217.408"/>
		<path style="fill:none;stroke:#FFFFFF;stroke-width:0.6395;stroke-miterlimit:10;" d="M91.208-96.323
			c55.334,205.932,232.87,173.298,418.315,153.396c75.572-8.038,139.805-5.202,193.352,4.044
			c122.189,21.099,168.459,99.741,138.537,196.649c-71.591,230.026,147.206,234.866,238.655,219.752"/>
		<path style="fill:none;stroke:#FFFFFF;stroke-width:0.6395;stroke-miterlimit:10;" d="M94.27-99.055
			C148.442,104.865,322.491,77.153,506.047,60.06c74.807-6.882,138.745-3.406,192.599,5.738
			c122.233,20.754,169.134,98.585,140.638,194.56c-68.281,227.761,147.352,234.885,237.76,222.095"/>
		<path style="fill:none;stroke:#FFFFFF;stroke-width:0.6395;stroke-miterlimit:10;" d="M97.332-101.787
			c53.01,201.908,223.573,179.117,405.24,164.834c74.042-5.725,137.685-1.609,191.847,7.432
			c122.276,20.411,169.808,97.43,142.739,192.471c-64.971,225.496,147.498,234.904,236.866,224.438"/>
		<path style="fill:none;stroke:#FFFFFF;stroke-width:0.6395;stroke-miterlimit:10;" d="M100.394-104.519
			C152.242,95.378,319.318,77.508,499.096,66.034c73.277-4.569,136.625,0.189,191.095,9.127
			c122.319,20.07,170.482,96.275,144.84,190.382c-61.661,223.231,147.644,234.923,235.971,226.781"/>
		<path style="fill:none;stroke:#FFFFFF;stroke-width:0.6395;stroke-miterlimit:10;" d="M103.456-107.251
			C154.142,90.634,317.732,77.685,495.621,69.021c72.512-3.413,135.564,1.988,190.342,10.821
			c122.361,19.731,171.157,95.119,146.941,188.293c-58.351,220.966,147.79,234.941,235.076,229.124"/>
		<path style="fill:none;stroke:#FFFFFF;stroke-width:0.6395;stroke-miterlimit:10;" d="M106.518-109.983
			C156.042,85.89,316.145,77.862,492.145,72.008c71.747-2.257,134.504,3.787,189.59,12.515
			c122.402,19.394,172.031,94.014,149.042,186.204c-54.567,218.82,147.936,234.96,234.182,231.468"/>
		<path style="fill:none;stroke:#FFFFFF;stroke-width:0.6395;stroke-miterlimit:10;" d="M109.58-112.715
			C157.942,81.146,314.558,78.04,488.67,74.995c70.982-1.101,133.443,5.587,188.837,14.21
			c122.444,19.059,172.724,92.86,151.143,184.116c-51.214,216.56,148.082,234.979,233.287,233.811"/>
		<path style="fill:none;stroke:#FFFFFF;stroke-width:0.6395;stroke-miterlimit:10;" d="M112.642-115.447
			c47.2,191.849,200.33,193.664,372.552,193.428c70.217,0.056,132.382,7.388,188.085,15.904
			c122.484,18.726,173.417,91.706,153.244,182.027C778.662,490.21,974.751,510.91,1058.916,512.067"/>
		<path style="fill:none;stroke:#FFFFFF;stroke-width:0.6395;stroke-miterlimit:10;" d="M115.704-118.178
			C161.742,71.659,311.385,78.394,481.719,80.968c69.452,1.212,131.321,9.189,187.333,17.598
			c122.524,18.395,174.109,90.551,155.345,179.938c-44.509,212.034,148.374,235.016,231.498,238.497"/>
		<path style="fill:none;stroke:#FFFFFF;stroke-width:0.6395;stroke-miterlimit:10;" d="M118.766-120.91
			C163.642,66.915,309.799,78.572,478.243,83.955c68.687,2.368,130.26,10.991,186.58,19.293
			c122.564,18.065,174.801,89.396,157.446,177.849c-41.158,209.769,148.519,235.035,230.603,240.84"/>
		<path style="fill:none;stroke:#FFFFFF;stroke-width:0.6395;stroke-miterlimit:10;" d="M121.828-123.642
			C165.542,62.172,308.212,78.749,474.768,86.942c67.922,3.524,129.198,12.794,185.828,20.987
			c122.603,17.738,175.493,88.24,159.547,175.76c-37.806,207.503,148.665,235.054,229.708,243.184"/>
		<path style="fill:none;stroke:#FFFFFF;stroke-width:0.6395;stroke-miterlimit:10;" d="M124.89-126.374
			C167.442,57.428,306.625,78.926,471.292,89.929c67.157,4.68,128.136,14.597,185.075,22.681
			c122.642,17.412,176.185,87.084,161.648,173.672c-34.456,205.235,148.811,235.072,228.814,245.527"/>
		<path style="fill:none;stroke:#FFFFFF;stroke-width:0.6395;stroke-miterlimit:10;" d="M127.952-129.106
			c41.391,181.79,177.087,208.21,339.865,222.022c66.392,5.836,127.075,16.402,184.323,24.375
			c122.681,17.088,176.876,85.926,163.749,171.583c-31.105,202.966,148.957,235.091,227.919,247.87"/>
		<path style="fill:none;stroke:#FFFFFF;stroke-width:0.6395;stroke-miterlimit:10;" d="M131.014-131.838
			C171.243,47.94,303.452,79.281,464.341,95.903c65.627,6.993,126.013,18.206,183.57,26.07
			c122.719,16.765,177.568,84.768,165.85,169.494c-27.756,200.695,149.103,235.11,227.024,250.213"/>
		<path style="fill:none;stroke:#FFFFFF;stroke-width:0.6395;stroke-miterlimit:10;" d="M134.076-134.57
			c39.067,177.766,167.79,214.028,326.79,233.46c64.862,8.149,124.95,20.012,182.818,27.764
			c122.757,16.444,178.259,83.61,167.951,167.405c-24.407,198.423,149.249,235.129,226.13,252.556"/>
		<path style="fill:none;stroke:#FFFFFF;stroke-width:0.6395;stroke-miterlimit:10;" d="M137.138-137.302
			C175.043,38.453,300.279,79.636,457.39,101.877c64.097,9.305,123.888,21.818,182.066,29.458
			c122.794,16.125,178.949,82.451,170.052,165.316c-21.06,196.149,149.395,235.147,225.235,254.9"/>
		<path style="fill:none;stroke:#FFFFFF;stroke-width:0.6395;stroke-miterlimit:10;" d="M140.2-140.034
			C176.943,33.709,298.693,79.813,453.914,104.864c63.332,10.461,122.826,23.625,181.313,31.153
			c122.832,15.808,179.639,81.291,172.153,163.227c-17.713,193.874,149.541,235.166,224.34,257.243"/>
		<path style="fill:none;stroke:#FFFFFF;stroke-width:0.6395;stroke-miterlimit:10;" d="M143.262-142.766
			C178.843,28.966,297.106,79.991,450.439,107.851c62.567,11.617,121.763,25.433,180.561,32.847
			c122.869,15.493,180.329,80.13,174.254,161.139c-14.367,191.597,149.687,235.185,223.445,259.586"/>
		<path style="fill:none;stroke:#FFFFFF;stroke-width:0.6395;stroke-miterlimit:10;" d="M146.324-145.497
			C180.743,24.222,295.581,79.865,446.963,110.837c61.827,12.65,120.7,27.241,179.809,34.541
			c122.905,15.178,181.018,78.969,176.355,159.05c-11.023,189.318,149.833,235.203,222.551,261.929"/>
		<path style="fill:none;stroke:#FFFFFF;stroke-width:0.6395;stroke-miterlimit:10;" d="M149.386-148.229
			C182.643,19.478,294.003,80.035,443.488,113.824c61.065,13.803,119.637,29.051,179.056,36.235
			C745.486,164.926,804.25,227.867,801,307.021c-7.68,187.038,149.979,235.222,221.656,264.272"/>
		<path style="fill:none;stroke:#FFFFFF;stroke-width:0.6395;stroke-miterlimit:10;" d="M152.448-150.961
			C184.543,14.734,292.424,80.206,440.012,116.811c60.304,14.957,118.575,30.86,178.304,37.93
			c122.978,14.555,182.394,76.644,180.557,154.872c-4.339,184.756,150.125,235.241,220.761,266.616"/>
		<path style="fill:none;stroke:#FFFFFF;stroke-width:0.6395;stroke-miterlimit:10;" d="M155.51-153.693
			C186.443,9.991,290.846,80.378,436.537,119.798c59.542,16.11,117.511,32.671,177.551,39.624
			c123.014,14.246,183.082,75.481,182.658,152.783c-0.999,182.473,150.271,235.26,219.867,268.959"/>
		<path style="fill:none;stroke:#FFFFFF;stroke-width:0.6395;stroke-miterlimit:10;" d="M158.572-156.425
			C188.343,5.247,289.269,80.551,433.061,122.785c58.781,17.265,116.448,34.482,176.799,41.318
			c123.049,13.938,183.768,74.317,184.759,150.694c2.338,180.188,150.417,235.278,218.972,271.302"/>
		<path style="fill:none;stroke:#FFFFFF;stroke-width:0.6395;stroke-miterlimit:10;" d="M161.634-159.157
			C190.243,0.503,287.691,80.725,429.586,125.772c58.02,18.419,115.385,36.294,176.046,43.013
			c123.085,13.632,184.454,73.152,186.86,148.605c5.674,177.901,150.563,235.297,218.077,273.645"/>
		<path style="fill:none;stroke:#FFFFFF;stroke-width:0.6395;stroke-miterlimit:10;" d="M164.696-161.889
			C192.143-4.24,286.113,80.899,426.11,128.759c57.258,19.574,114.322,38.107,175.294,44.707
			c123.12,13.327,185.138,71.987,188.961,146.517c9.008,175.613,150.709,235.316,217.183,275.988"/>
		<path style="fill:none;stroke:#FFFFFF;stroke-width:0.6395;stroke-miterlimit:10;" d="M167.758-164.621
			C194.043-8.984,284.536,81.075,422.635,131.746c56.497,20.73,113.258,39.92,174.542,46.401
			c123.155,13.024,185.822,70.821,191.062,144.428c12.339,173.324,150.855,235.334,216.288,278.332"/>
		<path style="fill:none;stroke:#FFFFFF;stroke-width:0.6395;stroke-miterlimit:10;" d="M170.82-167.353
			C195.943-13.728,282.958,81.251,419.159,134.733c55.736,21.885,112.195,41.734,173.789,48.095
			c123.19,12.722,186.505,69.655,193.163,142.339c15.668,171.033,151,235.353,215.393,280.675"/>
		<path style="fill:none;stroke:#FFFFFF;stroke-width:0.6395;stroke-miterlimit:10;" d="M173.882-170.085
			C197.844-18.472,281.38,81.428,415.684,137.719c54.974,23.042,111.131,43.549,173.037,49.79
			c123.225,12.422,187.187,68.488,195.264,140.25c18.994,168.742,151.147,235.372,214.499,283.018"/>
		<path style="fill:none;stroke:#FFFFFF;stroke-width:0.6395;stroke-miterlimit:10;" d="M176.944-172.816
			C199.744-23.215,279.803,81.607,412.208,140.706c54.213,24.198,110.067,45.365,172.284,51.484
			c123.26,12.123,187.867,67.321,197.365,138.161c22.317,166.449,151.292,235.39,213.604,285.361"/>
		<path style="fill:none;stroke:#FFFFFF;stroke-width:0.6395;stroke-miterlimit:10;" d="M180.006-175.548
			c21.637,147.59,98.218,257.334,228.726,319.242c53.452,25.355,109.004,47.181,171.532,53.178
			c123.294,11.826,188.546,66.153,199.466,136.072C805.368,497.1,931.169,568.353,992.44,620.648"/>
		<path style="fill:none;stroke:#FFFFFF;stroke-width:0.6395;stroke-miterlimit:10;" d="M183.068-178.28
			C203.544-32.703,276.646,81.966,405.257,146.68c52.69,26.512,107.94,48.998,170.78,54.873
			c123.329,11.53,189.224,64.985,201.567,133.984c28.955,161.861,151.584,235.428,211.815,290.048"/>
		<path style="fill:none;stroke:#FFFFFF;stroke-width:0.6395;stroke-miterlimit:10;" d="M186.13-181.012
			c19.314,143.566,88.937,263.159,215.651,330.679c51.928,27.67,106.876,50.816,170.027,56.567
			c123.363,11.235,189.901,63.817,203.668,131.895c32.269,159.567,151.73,235.447,210.92,292.391"/>
		<path style="fill:none;stroke:#FFFFFF;stroke-width:0.6395;stroke-miterlimit:10;" d="M189.192-183.744
			C207.344-42.19,273.488,82.329,398.306,152.654c51.166,28.828,105.812,52.634,169.275,58.261
			c123.397,10.941,190.576,62.649,205.769,129.806c35.58,157.272,151.876,235.465,210.025,294.734"/>
		<path style="fill:none;stroke:#FFFFFF;stroke-width:0.6395;stroke-miterlimit:10;" d="M192.254-186.476
			c16.99,139.542,79.654,268.988,202.576,342.117c50.404,29.986,104.748,54.453,168.522,59.956
			c123.431,10.65,191.25,61.481,207.87,127.717c38.888,154.977,152.022,235.484,209.13,297.077"/>
		<path style="fill:none;stroke:#FFFFFF;stroke-width:0.6395;stroke-miterlimit:10;" d="M195.316-189.208
			c15.828,137.53,75.012,271.904,196.039,347.836c49.641,31.145,103.684,56.273,167.77,61.65
			c123.465,10.359,191.922,60.312,209.971,125.628c42.192,152.682,152.168,235.503,208.236,299.42"/>
		<path style="fill:none;stroke:#FFFFFF;stroke-width:0.6395;stroke-miterlimit:10;" d="M198.378-191.94
			c14.666,135.519,70.369,274.82,189.501,353.554c48.879,32.304,102.62,58.094,167.018,63.344
			c123.499,10.069,192.593,59.144,212.072,123.539C812.461,498.885,919.283,584.02,974.31,650.262"/>
		<path style="fill:none;stroke:#FFFFFF;stroke-width:0.6395;stroke-miterlimit:10;" d="M201.44-194.672
			c13.504,133.507,65.726,277.737,182.964,359.273c48.116,33.464,101.556,59.915,166.265,65.038
			c123.533,9.781,193.262,57.976,214.173,121.451c48.789,148.093,152.46,235.54,206.446,304.107"/>
		<path style="fill:none;stroke:#FFFFFF;stroke-width:0.6395;stroke-miterlimit:10;" d="M204.502-197.404
			c12.342,131.495,61.081,280.655,176.426,364.992c47.353,34.623,100.492,61.737,165.513,66.733
			c123.567,9.494,193.93,56.809,216.274,119.362c52.082,145.801,152.606,235.559,205.552,306.45"/>
		<path style="fill:none;stroke:#FFFFFF;stroke-width:0.6395;stroke-miterlimit:10;" d="M207.564-200.135
			c11.18,129.483,56.436,283.573,169.888,370.711c46.589,35.783,99.428,63.56,164.76,68.427
			c123.601,9.208,194.596,55.642,218.375,117.273C815.96,499.784,913.34,591.853,965.245,665.068"/>
		<path style="fill:none;stroke:#FFFFFF;stroke-width:0.6395;stroke-miterlimit:10;" d="M210.626-202.867
			c10.018,127.471,51.79,286.492,163.351,376.43c45.825,36.943,98.364,65.383,164.008,70.121
			c123.635,8.924,195.26,54.476,220.476,115.184c58.657,141.22,152.898,235.596,203.762,311.136"/>
		<path style="fill:none;stroke:#FFFFFF;stroke-width:0.6395;stroke-miterlimit:10;" d="M213.688-205.599
			c8.856,125.46,47.144,289.412,156.813,382.148c45.061,38.104,97.3,67.207,163.255,71.815
			c123.669,8.641,195.923,53.311,222.577,113.095c61.94,138.931,153.044,235.615,202.868,313.479"/>
		<path style="fill:none;stroke:#FFFFFF;stroke-width:0.6395;stroke-miterlimit:10;" d="M216.75-208.331
			c7.694,123.448,42.496,292.332,150.276,387.867c44.296,39.264,96.236,69.032,162.503,73.51
			c123.703,8.358,196.585,52.146,224.678,111.006c65.219,136.646,153.19,235.634,201.973,315.823"/>
		<path style="fill:none;stroke:#FFFFFF;stroke-width:0.6395;stroke-miterlimit:10;" d="M219.812-211.063
			c6.532,121.436,37.848,295.252,143.738,393.586c43.531,40.425,95.172,70.858,161.751,75.204
			c123.737,8.078,197.245,50.983,226.779,108.918c68.495,134.362,153.336,235.652,201.078,318.166"/>
		<path style="fill:none;stroke:#FFFFFF;stroke-width:0.6395;stroke-miterlimit:10;" d="M222.874-213.795
			c5.37,119.424,33.198,298.173,137.201,399.305c42.766,41.586,94.107,72.684,160.998,76.898
			c123.771,7.798,197.904,49.821,228.88,106.829c71.768,132.081,153.482,235.671,200.184,320.509"/>
		<path style="fill:none;stroke:#FFFFFF;stroke-width:0.6395;stroke-miterlimit:10;" d="M225.936-216.527
			C230.145-99.115,254.484,84.567,356.6,188.497c42,42.747,93.043,74.511,160.246,78.593
			c123.804,7.519,198.562,48.66,230.981,104.74c75.038,129.803,153.628,235.69,199.289,322.852"/>
		<path style="fill:none;stroke:#FFFFFF;stroke-width:0.6395;stroke-miterlimit:10;" d="M228.998-219.259
			c3.046,115.401,23.897,304.015,124.126,410.742c41.234,43.908,91.979,76.339,159.493,80.287
			c123.838,7.242,199.219,47.5,233.082,102.651c78.306,127.529,153.773,235.709,198.394,325.195"/>
		<path style="fill:none;stroke:#FFFFFF;stroke-width:0.6395;stroke-miterlimit:10;" d="M232.061-221.991
			c1.884,113.389,19.035,307.125,117.588,416.461c40.381,45.146,90.915,78.168,158.741,81.981
			c123.872,6.965,199.874,46.342,235.183,100.562c81.571,125.258,153.919,235.727,197.5,327.538"/>
		<path style="fill:none;stroke:#FFFFFF;stroke-width:0.6395;stroke-miterlimit:10;" d="M235.122-224.723
			c0.723,111.377,14.386,310.035,111.051,422.18c39.616,46.302,89.851,79.997,157.989,83.676
			c123.906,6.69,200.529,45.186,237.284,98.473c84.834,122.99,154.065,235.746,196.605,329.882"/>
		<path style="fill:none;stroke:#FFFFFF;stroke-width:0.6395;stroke-miterlimit:10;" d="M238.184-227.455
			c-0.439,109.365,9.738,312.944,104.513,427.899c38.851,47.459,88.787,81.827,157.236,85.37
			c123.941,6.416,201.182,44.031,239.385,96.385c88.095,120.726,154.211,235.765,195.71,332.225"/>
		<path style="fill:none;stroke:#FFFFFF;stroke-width:0.6395;stroke-miterlimit:10;" d="M241.247-230.186
			c-1.602,107.353,5.089,315.853,97.975,433.618c38.086,48.615,87.723,83.657,156.484,87.064
			c123.975,6.143,201.835,42.878,241.486,94.296c91.355,118.466,154.357,235.783,194.815,334.568"/>
		<path style="fill:none;stroke:#FFFFFF;stroke-width:0.6395;stroke-miterlimit:10;" d="M244.309-232.918
			c-2.763,105.342,0.44,318.762,91.438,439.336c37.321,49.771,86.659,85.488,155.731,88.759
			c124.009,5.871,202.488,41.727,243.587,92.207c94.614,116.21,154.503,235.802,193.921,336.911"/>
		<path style="fill:none;stroke:#FFFFFF;stroke-width:0.6395;stroke-miterlimit:10;" d="M247.371-235.65
			c-3.925,103.33-4.208,321.672,84.9,445.055c36.556,50.927,85.595,87.32,154.979,90.453c124.043,5.6,203.14,40.577,245.688,90.118
			C830.81,503.934,887.587,625.797,925.964,729.23"/>
		<path style="fill:none;stroke:#FFFFFF;stroke-width:0.6395;stroke-miterlimit:10;" d="M250.433-238.382
			c-5.087,101.318-8.857,324.581,78.363,450.774c35.791,52.083,84.531,89.153,154.227,92.147
			c124.078,5.33,203.792,39.429,247.789,88.029c101.129,111.71,154.795,235.84,192.131,341.598"/>
		<path style="fill:none;stroke:#FFFFFF;stroke-width:0.6395;stroke-miterlimit:10;" d="M253.495-241.114
			c-6.249,99.306-13.506,327.49,71.825,456.493c35.026,53.24,83.467,90.987,153.474,93.841
			c124.112,5.061,204.444,38.283,249.89,85.94c104.387,109.466,154.941,235.858,191.237,343.941"/>
		<path style="fill:none;stroke:#FFFFFF;stroke-width:0.6395;stroke-miterlimit:10;" d="M256.557-243.846
			c-7.411,97.294-18.154,330.399,65.288,462.212c34.261,54.396,82.403,92.821,152.722,95.536
			c124.147,4.793,205.096,37.138,251.991,83.851C834.201,504.979,881.644,633.63,916.899,744.037"/>
		<path style="fill:none;stroke:#FFFFFF;stroke-width:0.6395;stroke-miterlimit:10;" d="M259.619-246.578
			c-8.573,95.283-22.803,333.309,58.75,467.93c33.496,55.552,81.339,94.656,151.969,97.23
			c124.182,4.526,205.748,35.996,254.092,81.763c110.902,104.99,155.233,235.896,189.447,348.627"/>
		<path style="fill:none;stroke:#FFFFFF;stroke-width:0.6395;stroke-miterlimit:10;" d="M262.681-249.31
			c-9.735,93.271-27.451,336.218,52.213,473.649c32.731,56.708,80.275,96.492,151.217,98.924
			c124.216,4.26,206.4,34.855,256.193,79.674c114.16,102.757,155.379,235.914,188.553,350.97"/>
		<path style="fill:none;stroke:#FFFFFF;stroke-width:0.6395;stroke-miterlimit:10;" d="M265.743-252.042
			c-10.897,91.259-32.1,339.127,45.675,479.368c31.966,57.864,79.212,98.328,150.465,100.618
			c124.251,3.995,207.053,33.715,258.294,77.585c117.42,100.529,155.525,235.933,187.658,353.314"/>
		<path style="fill:none;stroke:#FFFFFF;stroke-width:0.6395;stroke-miterlimit:10;" d="M268.805-254.774
			c-12.059,89.247-36.748,342.037,39.138,485.087c31.201,59.02,78.148,100.165,149.712,102.313
			c124.287,3.73,207.706,32.577,260.395,75.496C838.73,506.426,873.72,644.074,904.813,763.779"/>
		<path style="fill:none;stroke:#FFFFFF;stroke-width:0.6395;stroke-miterlimit:10;" d="M271.867-257.505
			C258.646-170.27,230.47,87.44,304.467,233.3c30.436,60.176,77.081,102.141,148.96,104.007
			c124.315,3.707,208.36,31.441,262.496,73.407c123.943,96.081,155.817,235.97,185.869,358"/>
		<path style="fill:none;stroke:#FFFFFF;stroke-width:0.6395;stroke-miterlimit:10;" d="M274.929-260.237
			c-14.383,85.223-46.046,347.855,26.062,496.524c29.671,61.333,76.018,103.958,148.207,105.701
			c124.352,3.407,209.015,30.306,264.597,71.318C841.003,507.169,869.758,649.296,898.77,773.65"/>
		<path style="fill:none;stroke:#FFFFFF;stroke-width:0.6395;stroke-miterlimit:10;" d="M277.991-262.969
			c-15.545,83.212-50.694,350.764,19.525,502.243c28.906,62.489,74.955,105.775,147.455,107.396
			c124.389,3.107,209.602,29.269,266.698,69.23c130.317,91.868,156.109,236.008,184.079,362.686"/>
		<path style="fill:none;stroke:#FFFFFF;stroke-width:0.6395;stroke-miterlimit:10;" d="M281.053-265.701
			c-16.707,81.2-55.343,353.674,12.987,507.962c28.141,63.645,73.892,107.593,146.702,109.09
			c124.426,2.807,210.276,28.113,268.799,67.141c133.627,89.603,156.255,236.027,183.185,365.03"/>
		<path style="fill:none;stroke:#FFFFFF;stroke-width:0.6395;stroke-miterlimit:10;" d="M284.115-268.433
			c-17.869,79.188-59.992,356.583,6.45,513.681c27.376,64.801,72.83,109.41,145.95,110.784
			c124.463,2.507,210.951,26.958,270.9,65.052c136.937,87.339,156.401,236.045,182.29,367.373"/>
		<path style="fill:none;stroke:#FFFFFF;stroke-width:0.6395;stroke-miterlimit:10;" d="M287.177-271.165
			c-19.031,77.176-64.64,359.492-0.088,519.4c26.611,65.957,71.767,111.227,145.198,112.479
			c124.5,2.207,211.625,25.803,273.001,62.963C845.535,508.75,861.834,659.74,886.683,793.392"/>
		<path style="fill:none;stroke:#FFFFFF;stroke-width:0.6395;stroke-miterlimit:10;" d="M290.239-273.897
			c-28.521,106.167-114.706,635.425,137.82,639.291c409.209,6.266,421.379,237.471,455.603,432.934"/>
	</g>
	<g style="opacity:0.5;clip-path:url(#SVGID_00000063621678022431969150000002954123262580109184_);">
		<path style="fill:none;stroke:#FFFFFF;stroke-miterlimit:10;" d="M-84.455,94.353C162.548,270.981-52.018,632.61,296.092,462.314
			c194.717-95.256,293.743-44.451,373.411,0.378c220.693,124.182,325.801-108.447,454.667-312.262"/>
		<path style="fill:none;stroke:#FFFFFF;stroke-miterlimit:10;" d="M-85.317,102.058C161.007,272.889-45.528,625.741,298.288,462.09
			c78.061-37.108,140.6-50.069,192.614-49.648c75.902,0.614,129.383,29.438,176.177,56.462
			c218.048,125.762,323.1-101.237,454.871-302.181"/>
		<path style="fill:none;stroke:#FFFFFF;stroke-miterlimit:10;" d="M-86.179,109.763c245.645,165.034,47.14,509.109,386.664,352.103
			c77.113-35.564,138.924-46.888,190.367-45.33c74.756,2.264,127.558,31.17,173.804,58.579
			c215.404,127.342,320.399-94.028,455.076-292.099"/>
		<path style="fill:none;stroke:#FFFFFF;stroke-miterlimit:10;" d="M-87.041,117.468C157.926,276.705-32.55,612.003,302.681,461.642
			c76.166-34.021,137.233-43.71,188.12-41.011c73.595,3.904,125.732,32.901,171.43,60.695
			c212.759,128.921,317.699-86.819,455.28-282.018"/>
		<path style="fill:none;stroke:#FFFFFF;stroke-miterlimit:10;" d="M-87.903,125.174c244.288,153.44,61.842,479.96,392.78,336.244
			c75.219-32.477,135.528-40.538,185.873-36.692c72.417,5.532,123.907,34.633,169.057,62.812
			c210.115,130.501,314.998-79.609,455.485-271.936"/>
		<path style="fill:none;stroke:#FFFFFF;stroke-miterlimit:10;" d="M-88.765,132.879
			c243.609,147.643,69.194,465.385,395.838,328.315c74.271-30.934,133.808-37.372,183.626-32.373
			c71.223,7.146,122.082,36.365,166.684,64.929c207.47,132.081,312.297-72.4,455.689-261.855"/>
		<path style="fill:none;stroke:#FFFFFF;stroke-miterlimit:10;" d="M-89.627,140.584C153.304,282.43-13.082,591.395,309.27,460.97
			c73.324-29.391,132.073-34.214,181.379-28.055c70.014,8.746,120.256,38.097,164.31,67.046
			c204.826,133.66,309.596-65.19,455.894-251.773"/>
		<path style="fill:none;stroke:#FFFFFF;stroke-miterlimit:10;" d="M-90.489,148.289C151.763,284.338-6.592,584.526,311.466,460.746
			c72.376-27.847,130.325-31.064,179.132-23.736c68.789,10.328,118.431,39.828,161.937,69.163
			c202.181,135.24,306.896-57.981,456.098-241.692"/>
		<path style="fill:none;stroke:#FFFFFF;stroke-miterlimit:10;" d="M-91.351,155.995C150.222,286.246-0.363,576.957,313.662,460.522
			c71.37-26.463,128.562-27.924,176.886-19.417c67.55,11.891,116.543,41.65,159.564,71.28
			c199.252,137.234,304.195-50.771,456.303-231.61"/>
		<path style="fill:none;stroke:#FFFFFF;stroke-miterlimit:10;" d="M-92.213,163.7C148.682,288.154,6.107,570,315.858,460.298
			c70.418-24.939,126.787-24.794,174.639-15.098c66.298,13.434,114.71,43.39,157.19,73.397
			c196.572,138.853,301.494-43.562,456.507-221.529"/>
		<path style="fill:none;stroke:#FFFFFF;stroke-miterlimit:10;" d="M-93.075,171.405C147.141,290.062,12.58,563.044,318.055,460.075
			c69.467-23.416,124.998-21.677,172.392-10.78c65.033,14.953,112.877,45.13,154.817,75.514
			c193.893,140.469,298.793-36.352,456.711-211.447"/>
		<path style="fill:none;stroke:#FFFFFF;stroke-miterlimit:10;" d="M-93.937,179.11C145.6,291.971,19.056,556.088,320.251,459.851
			c68.517-21.892,123.198-18.573,170.145-6.461c63.756,16.449,111.044,46.869,152.444,77.631
			c191.215,142.082,296.092-29.143,456.916-201.366"/>
		<path style="fill:none;stroke:#FFFFFF;stroke-miterlimit:10;" d="M-94.799,186.816C144.06,293.879,25.537,549.132,322.447,459.627
			c67.568-20.369,121.387-15.484,167.898-2.142c62.47,17.919,109.212,48.608,150.07,79.747
			c188.538,143.692,293.392-21.933,457.12-191.284"/>
		<path style="fill:none;stroke:#FFFFFF;stroke-miterlimit:10;" d="M-95.661,194.521
			c238.18,101.266,127.683,347.657,420.304,264.882c66.619-18.845,119.567-12.41,165.651,2.177
			c61.177,19.363,107.379,50.345,147.697,81.864c185.861,145.299,290.691-14.724,457.325-181.203"/>
		<path style="fill:none;stroke:#FFFFFF;stroke-miterlimit:10;" d="M-96.523,202.226C140.978,297.695,38.51,535.225,326.839,459.179
			c65.671-17.321,117.738-9.352,163.404,6.495c59.876,20.779,105.547,52.083,145.323,83.981
			c183.185,146.904,287.99-7.514,457.529-171.121"/>
		<path style="fill:none;stroke:#FFFFFF;stroke-miterlimit:10;" d="M-97.385,209.931
			c236.823,89.672,142.388,318.342,426.421,249.024c64.725-15.796,115.903-6.312,161.158,10.814
			c58.572,22.166,103.714,53.819,142.95,86.098c180.51,148.505,285.289-0.305,457.734-161.04"/>
		<path style="fill:none;stroke:#FFFFFF;stroke-miterlimit:10;" d="M-98.247,217.637C137.897,301.511,51.5,521.323,331.232,458.731
			c63.779-14.271,114.062-3.291,158.911,15.133c57.265,23.524,101.882,55.555,140.577,88.215
			c177.837,150.103,282.589,6.905,457.938-150.958"/>
		<path style="fill:none;stroke:#FFFFFF;stroke-miterlimit:10;" d="M-99.109,225.342
			c235.465,78.078,157.111,289.034,432.537,233.165c62.835-12.746,112.219-0.288,156.664,19.451
			c55.957,24.853,100.051,57.29,138.203,90.332c175.164,151.699,279.888,14.114,458.143-140.877"/>
		<path style="fill:none;stroke:#FFFFFF;stroke-miterlimit:10;" d="M-99.971,233.047c234.787,72.281,164.48,274.384,435.596,225.236
			c61.892-11.22,110.374,2.695,154.417,23.77c54.651,26.152,98.219,59.025,135.83,92.449
			c172.494,153.291,277.187,21.324,458.347-130.795"/>
		<path style="fill:none;stroke:#FFFFFF;stroke-miterlimit:10;" d="M-100.833,240.752C133.275,307.236,71.02,500.49,337.821,458.059
			c60.949-9.693,108.53,5.657,152.17,28.089c53.349,27.422,96.388,60.759,133.456,94.566
			C793.272,735.595,897.934,609.247,1081.999,460"/>
		<path style="fill:none;stroke:#FFFFFF;stroke-miterlimit:10;" d="M-101.695,248.458
			c233.429,60.686,179.232,245.095,441.712,209.378c60.009-8.166,106.689,8.6,149.923,32.408
			c52.053,28.664,94.558,62.493,131.083,96.683c167.157,156.468,271.786,35.743,458.756-110.632"/>
		<path style="fill:none;stroke:#FFFFFF;stroke-miterlimit:10;" d="M-102.557,256.163
			c232.751,54.889,186.615,230.456,444.77,201.449c59.069-6.637,104.852,11.522,147.676,36.726
			c50.765,29.879,92.728,64.226,128.71,98.8c164.491,158.052,269.085,42.952,458.96-100.551"/>
		<path style="fill:none;stroke:#FFFFFF;stroke-miterlimit:10;" d="M-103.42,263.868C128.652,312.96,90.584,479.69,344.409,457.388
			c58.13-5.108,103.023,14.423,145.43,41.045c49.487,31.067,90.898,65.958,126.336,100.917
			c161.827,159.633,266.384,50.162,459.165-90.469"/>
		<path style="fill:none;stroke:#FFFFFF;stroke-miterlimit:10;" d="M-104.282,271.573
			c231.393,43.295,201.397,201.194,450.887,185.59c57.192-3.577,101.202,17.305,143.183,45.364
			c48.22,32.23,89.068,67.69,123.963,103.033c159.166,161.212,263.683,57.371,459.369-80.388"/>
		<path style="fill:none;stroke:#FFFFFF;stroke-miterlimit:10;" d="M-105.144,279.279
			C125.571,316.777,103.651,465.85,348.802,456.94c56.255-2.045,99.393,20.167,140.936,49.683
			c46.967,33.37,87.239,69.421,121.59,105.15c156.506,162.788,260.982,64.581,459.574-70.306"/>
		<path style="fill:none;stroke:#FFFFFF;stroke-miterlimit:10;" d="M-106.006,286.984
			c230.036,31.701,216.196,171.957,457.003,169.732c55.32-0.511,97.596,23.009,138.689,54.001
			c45.729,34.488,85.411,71.152,119.216,107.267c153.849,164.361,258.282,71.79,459.778-60.225"/>
		<path style="fill:none;stroke:#FFFFFF;stroke-miterlimit:10;" d="M-106.868,294.689
			c229.357,25.904,223.602,157.349,460.062,161.803c54.385,1.024,95.814,25.835,136.442,58.32
			c44.506,35.586,83.583,72.882,116.843,109.384c151.194,165.932,255.581,79,459.983-50.143"/>
		<path style="fill:none;stroke:#FFFFFF;stroke-miterlimit:10;" d="M-107.73,302.394c228.679,20.107,231.012,142.75,463.12,153.874
			c53.451,2.562,94.049,28.643,134.195,62.639c43.301,36.668,81.755,74.611,114.47,111.501
			c148.541,167.5,252.88,86.209,460.187-40.062"/>
		<path style="fill:none;stroke:#FFFFFF;stroke-miterlimit:10;" d="M-108.592,310.1c228,14.31,238.424,128.16,466.178,145.944
			c52.518,4.101,92.302,31.435,131.949,66.957c42.114,37.733,79.928,76.34,112.096,113.618
			c145.891,169.067,250.179,93.418,460.392-29.98"/>
		<path style="fill:none;stroke:#FFFFFF;stroke-miterlimit:10;" d="M-109.454,317.805c227.321,8.513,245.839,113.58,469.237,138.015
			c51.585,5.643,90.574,34.212,129.702,71.276c40.946,38.786,78.102,78.069,109.723,115.735
			c143.244,170.631,247.479,100.628,460.596-19.899"/>
		<path style="fill:none;stroke:#FFFFFF;stroke-miterlimit:10;" d="M-110.316,325.51c226.643,2.716,253.255,99.01,472.295,130.086
			c50.653,7.186,88.866,36.977,127.455,75.595c39.797,39.827,76.277,79.797,107.349,117.852
			c140.6,172.193,244.778,107.837,460.8-9.817"/>
		<path style="fill:none;stroke:#FFFFFF;stroke-miterlimit:10;" d="M-111.178,333.215c225.964-3.081,260.672,84.451,475.353,122.157
			c49.721,8.733,87.179,39.729,125.208,79.914c38.667,40.859,74.452,81.524,104.976,119.969
			c137.958,173.753,242.077,115.047,461.005,0.264"/>
		<path style="fill:none;stroke:#FFFFFF;stroke-miterlimit:10;" d="M-112.04,340.921c225.285-8.879,268.088,69.903,478.411,114.228
			c48.788,10.282,85.515,42.472,122.961,84.232c37.558,41.885,72.628,83.252,102.603,122.085
			c135.32,175.311,239.376,122.256,461.209,10.346"/>
		<path style="fill:none;stroke:#FFFFFF;stroke-miterlimit:10;" d="M-112.902,348.626c224.607-14.676,275.502,55.367,481.47,106.299
			c47.856,11.834,83.873,45.206,120.714,88.551c36.468,42.906,70.804,84.979,100.229,124.202
			c132.685,176.867,236.676,129.466,461.414,20.427"/>
		<path style="fill:none;stroke:#FFFFFF;stroke-miterlimit:10;" d="M-113.764,356.331c223.928-20.473,282.913,40.843,484.528,98.37
			c46.922,13.388,82.253,47.933,118.467,92.87c35.398,43.924,68.981,86.705,97.856,126.319
			c130.053,178.422,233.975,136.675,461.618,30.509"/>
		<path style="fill:none;stroke:#FFFFFF;stroke-miterlimit:10;" d="M-114.626,364.036c223.249-26.27,290.319,26.331,487.586,90.441
			c45.987,14.945,80.657,50.654,116.221,97.188c34.347,44.942,67.159,88.431,95.483,128.436
			c127.424,179.975,231.274,143.885,461.823,40.59"/>
		<path style="fill:none;stroke:#FFFFFF;stroke-miterlimit:10;" d="M-115.488,371.742c222.571-32.067,297.719,11.829,490.645,82.511
			c45.051,16.505,79.082,53.373,113.974,101.507c33.315,45.96,65.337,90.157,93.109,130.553
			c124.798,181.527,228.573,151.094,462.027,50.672"/>
		<path style="fill:none;stroke:#FFFFFF;stroke-miterlimit:10;" d="M-116.35,379.447c221.892-37.864,305.112-2.661,493.703,74.582
			c44.113,18.068,77.53,56.088,111.727,105.826c32.301,46.98,63.517,91.883,90.736,132.67
			c122.176,183.078,225.872,158.304,462.232,60.753"/>
		<path style="fill:none;stroke:#FFFFFF;stroke-miterlimit:10;" d="M-117.212,387.152c221.213-43.661,312.495-17.14,496.761,66.653
			c43.174,19.633,76,58.803,109.48,110.145c31.304,48.005,61.697,93.608,88.362,134.787
			c119.557,184.628,223.172,165.513,462.436,70.835"/>
		<path style="fill:none;stroke:#FFFFFF;stroke-miterlimit:10;" d="M-118.074,394.857c220.535-49.458,319.869-31.611,499.819,58.724
			c42.231,21.2,74.491,61.519,107.233,114.464c30.324,49.034,59.878,95.333,85.989,136.904
			c116.941,186.176,220.471,172.723,462.641,80.916"/>
		<path style="fill:none;stroke:#FFFFFF;stroke-miterlimit:10;" d="M-118.936,402.563c219.856-55.255,327.232-46.073,502.878,50.795
			c41.286,22.769,73.002,64.236,104.986,118.782c29.36,50.07,58.059,97.058,83.616,139.021
			c114.329,187.724,217.77,179.932,462.845,90.998"/>
		<path style="fill:none;stroke:#FFFFFF;stroke-miterlimit:10;" d="M-119.798,410.268c219.177-61.052,334.582-60.528,505.936,42.866
			c40.339,24.34,71.532,66.957,102.74,123.101c28.411,51.114,56.242,98.782,81.242,141.137
			c111.72,189.272,215.069,187.142,463.049,101.079"/>
		<path style="fill:none;stroke:#FFFFFF;stroke-miterlimit:10;" d="M-120.66,417.973c218.499-66.849,341.92-74.978,508.994,34.936
			c39.388,25.912,70.081,69.681,100.493,127.42c27.476,52.165,54.425,100.507,78.869,143.254
			c109.115,190.819,212.369,194.351,463.254,111.161"/>
		<path style="fill:none;stroke:#FFFFFF;stroke-miterlimit:10;" d="M-121.522,425.678c217.82-72.647,349.243-89.424,512.052,27.007
			c38.434,27.486,68.647,72.411,98.246,131.738c26.555,53.225,52.609,102.232,76.496,145.371
			C671.784,922.16,774.939,931.356,1028.73,851.037"/>
		<path style="fill:none;stroke:#FFFFFF;stroke-miterlimit:10;" d="M-122.384,433.384
			c217.141-78.444,356.553-103.868,515.111,19.078c37.476,29.06,67.229,75.146,95.999,136.057
			c25.645,54.295,50.794,103.956,74.122,147.488c103.915,193.912,206.967,208.77,463.663,131.324"/>
		<path style="fill:none;stroke:#FFFFFF;stroke-miterlimit:10;" d="M-123.246,441.089c216.463-84.241,363.85-118.311,518.169,11.149
			c36.516,30.634,65.826,77.888,93.752,140.376c24.747,55.375,49.063,105.637,71.749,149.605
			c101.69,195.266,204.266,215.98,463.867,141.405"/>
		<path style="fill:none;stroke:#FFFFFF;stroke-miterlimit:10;" d="M-124.108,448.794c215.784-90.038,371.132-132.756,521.227,3.22
			c35.552,32.207,64.437,80.637,91.505,144.695c23.86,56.465,47.237,107.369,69.376,151.722
			c99.046,196.845,201.565,223.189,464.072,151.487"/>
		<path style="fill:none;stroke:#FFFFFF;stroke-miterlimit:10;" d="M-124.97,456.499c215.105-95.835,378.401-147.203,524.285-4.71
			c34.585,33.781,63.061,83.393,89.258,149.013c22.982,57.565,45.412,109.101,67.002,153.839
			c96.401,198.425,198.865,230.399,464.276,161.568"/>
		<path style="fill:none;stroke:#FFFFFF;stroke-miterlimit:10;" d="M-125.832,464.204
			c214.427-101.632,385.657-161.653,527.344-12.639c33.615,35.353,61.696,86.158,87.012,153.332
			c22.113,58.676,43.587,110.833,64.629,155.956c93.757,200.004,196.164,237.608,464.481,171.65"/>
		<path style="fill:none;stroke:#FFFFFF;stroke-miterlimit:10;" d="M-126.695,471.91
			c213.748-107.429,392.656-175.892,530.402-20.568c32.584,36.976,60.342,88.931,84.765,157.651
			c21.252,59.798,41.761,112.565,62.255,158.072c91.112,201.584,193.463,244.818,464.685,181.731"/>
		<path style="fill:none;stroke:#FFFFFF;stroke-miterlimit:10;" d="M-127.557,479.615
			c213.069-113.226,400.008-190.466,533.46-28.497c31.636,38.52,58.998,91.712,82.518,161.969
			c20.398,60.931,39.936,114.296,59.882,160.189c88.468,203.164,190.762,252.027,464.889,191.813"/>
		<path style="fill:none;stroke:#FFFFFF;stroke-miterlimit:10;" d="M-128.419,487.32
			c262.855-147.303,499.025-244.054,616.789,129.862c106.044,336.702,182.953,434.504,522.603,364.201"/>
	</g>
	<polygon style="opacity:0.5;clip-path:url(#SVGID_00000063621678022431969150000002954123262580109184_);fill:#FFFFFF;" points="
		677.534,135.047 677.534,137.167 642.634,172.067 641.574,171.007 	"/>
	<polygon style="opacity:0.5;clip-path:url(#SVGID_00000063621678022431969150000002954123262580109184_);fill:#FFFFFF;" points="
		97.589,408.587 97.589,410.707 62.689,445.608 61.629,444.547 	"/>
	<polygon style="opacity:0.5;clip-path:url(#SVGID_00000063621678022431969150000002954123262580109184_);fill:#FFFFFF;" points="
		568.243,395.952 568.243,398.072 533.343,432.972 532.283,431.912 	"/>
	<polygon style="opacity:0.5;clip-path:url(#SVGID_00000063621678022431969150000002954123262580109184_);fill:#FFFFFF;" points="
		19.514,125.632 -0.386,145.532 -0.386,143.402 18.454,124.562 	"/>
	<g style="clip-path:url(#SVGID_00000063621678022431969150000002954123262580109184_);">
		
			<rect x="665.422" y="103.441" transform="matrix(0.7071 0.7071 -0.7071 0.7071 288.1155 -432.5354)" style="opacity:0.5;fill:#FFFFFF;" width="1.504" height="56.154"/>
		
			<rect x="695.996" y="96.429" transform="matrix(0.7071 0.7071 -0.7071 0.7071 275.4514 -463.1094)" style="opacity:0.5;fill:#FFFFFF;" width="1.504" height="9.03"/>
	</g>
	<g style="clip-path:url(#SVGID_00000063621678022431969150000002954123262580109184_);">
		
			<rect x="357.24" y="173.259" transform="matrix(0.7071 0.7071 -0.7071 0.7071 247.2177 -194.168)" style="opacity:0.5;fill:#FFFFFF;" width="1.504" height="56.154"/>
		
			<rect x="387.814" y="166.247" transform="matrix(0.7071 0.7071 -0.7071 0.7071 234.5553 -224.7424)" style="opacity:0.5;fill:#FFFFFF;" width="1.504" height="9.03"/>
	</g>
	<g style="clip-path:url(#SVGID_00000063621678022431969150000002954123262580109184_);">
		
			<rect x="29.197" y="5.706" transform="matrix(0.7071 0.7071 -0.7071 0.7071 32.66 -11.2824)" style="opacity:0.5;fill:#FFFFFF;" width="1.504" height="56.154"/>
		
			<rect x="59.771" y="-1.306" transform="matrix(0.7071 0.7071 -0.7071 0.7071 19.9959 -41.8564)" style="opacity:0.5;fill:#FFFFFF;" width="1.504" height="9.03"/>
	</g>
	<g style="clip-path:url(#SVGID_00000063621678022431969150000002954123262580109184_);">
		
			<rect x="48.393" y="475.966" transform="matrix(0.7071 0.7071 -0.7071 0.7071 363.4877 109.8484)" style="opacity:0.5;fill:#FFFFFF;" width="1.504" height="35.454"/>
		
			<rect x="78.857" y="447.045" transform="matrix(0.7071 0.7071 -0.7071 0.7071 350.8692 79.3846)" style="opacity:0.5;fill:#FFFFFF;" width="1.504" height="32.367"/>
	</g>
	<g style="clip-path:url(#SVGID_00000063621678022431969150000002954123262580109184_);">
		
			<rect x="364.203" y="12.221" transform="matrix(0.7071 0.7071 -0.7071 0.7071 128.0685 -249.2895)" style="opacity:0.5;fill:#FFFFFF;" width="1.504" height="35.454"/>
		
			<rect x="394.667" y="-16.699" transform="matrix(0.7071 0.7071 -0.7071 0.7071 115.4526 -279.7558)" style="opacity:0.5;fill:#FFFFFF;" width="1.504" height="32.367"/>
	</g>
	
		<rect x="119.561" y="-105.879" transform="matrix(0.7071 0.7071 -0.7071 0.7071 65.6552 -72.4749)" style="opacity:0.5;clip-path:url(#SVGID_00000063621678022431969150000002954123262580109184_);fill:#FFFFFF;" width="1.504" height="297.788"/>
	
		<rect x="549.511" y="284.078" transform="matrix(0.7071 0.7071 -0.7071 0.7071 467.3256 -262.2801)" style="opacity:0.5;clip-path:url(#SVGID_00000063621678022431969150000002954123262580109184_);fill:#FFFFFF;" width="1.504" height="297.788"/>
	
		<rect x="252.686" y="140.452" transform="matrix(0.7071 0.7071 -0.7071 0.7071 278.8286 -94.4601)" style="opacity:0.5;clip-path:url(#SVGID_00000063621678022431969150000002954123262580109184_);fill:#FFFFFF;" width="1.504" height="297.788"/>
	<g style="clip-path:url(#SVGID_00000063621678022431969150000002954123262580109184_);">
		<path style="opacity:0.5;fill:#FFFFFF;" d="M85.492,45.606h-4.313v-4.313c0-0.867-0.703-1.57-1.57-1.57
			c-0.867,0-1.57,0.703-1.57,1.57v4.313h-4.313c-0.867,0-1.57,0.703-1.57,1.57c0,0.867,0.703,1.57,1.57,1.57h4.313v4.313
			c0,0.867,0.703,1.57,1.57,1.57c0.867,0,1.57-0.703,1.57-1.57v-4.313h4.313c0.867,0,1.57-0.703,1.57-1.57
			C87.063,46.309,86.359,45.606,85.492,45.606z"/>
		<path style="opacity:0.5;fill:#FFFFFF;" d="M665.438,106.828h-4.313v-4.313c0-0.867-0.703-1.57-1.57-1.57
			c-0.867,0-1.57,0.703-1.57,1.57v4.313h-4.313c-0.867,0-1.57,0.703-1.57,1.57c0,0.867,0.703,1.57,1.57,1.57h4.313v4.313
			c0,0.867,0.703,1.57,1.57,1.57c0.867,0,1.57-0.703,1.57-1.57v-4.313h4.313c0.867,0,1.57-0.703,1.57-1.57
			C667.008,107.531,666.305,106.828,665.438,106.828z"/>
		<path style="opacity:0.5;fill:#FFFFFF;" d="M373.973,46.115h-2.917v-2.917c0-0.586-0.475-1.062-1.062-1.062
			c-0.586,0-1.062,0.475-1.062,1.062v2.917h-2.917c-0.586,0-1.062,0.475-1.062,1.062c0,0.586,0.475,1.062,1.062,1.062h2.917v2.917
			c0,0.586,0.475,1.062,1.062,1.062c0.586,0,1.062-0.475,1.062-1.062v-2.917h2.917c0.586,0,1.062-0.475,1.062-1.062
			C375.035,46.59,374.56,46.115,373.973,46.115z"/>
		<path style="opacity:0.5;fill:#FFFFFF;" d="M261.873,253.978h-2.917v-2.917c0-0.586-0.475-1.062-1.062-1.062
			c-0.586,0-1.062,0.475-1.062,1.062v2.917h-2.916c-0.586,0-1.062,0.475-1.062,1.062c0,0.586,0.475,1.062,1.062,1.062h2.916v2.916
			c0,0.586,0.475,1.062,1.062,1.062c0.586,0,1.062-0.475,1.062-1.062v-2.916h2.917c0.586,0,1.062-0.475,1.062-1.062
			C262.935,254.454,262.46,253.978,261.873,253.978z"/>
		<path style="opacity:0.5;fill:#FFFFFF;" d="M53.123,462.167h-2.917v-2.917c0-0.586-0.475-1.062-1.062-1.062
			c-0.586,0-1.062,0.475-1.062,1.062v2.917h-2.917c-0.586,0-1.062,0.475-1.062,1.062c0,0.586,0.475,1.062,1.062,1.062h2.917v2.917
			c0,0.586,0.475,1.062,1.062,1.062c0.586,0,1.062-0.475,1.062-1.062v-2.917h2.917c0.586,0,1.062-0.475,1.062-1.062
			C54.185,462.642,53.71,462.167,53.123,462.167z"/>
		<path style="opacity:0.5;fill:#FFFFFF;" d="M594.746,350.351h-2.985v-2.985c0-0.6-0.487-1.087-1.087-1.087
			c-0.6,0-1.087,0.486-1.087,1.087v2.985h-2.985c-0.6,0-1.087,0.486-1.087,1.087c0,0.6,0.487,1.087,1.087,1.087h2.985v2.985
			c0,0.6,0.487,1.087,1.087,1.087c0.6,0,1.087-0.486,1.087-1.087v-2.985h2.985c0.6,0,1.087-0.486,1.087-1.087
			C595.833,350.837,595.346,350.351,594.746,350.351z"/>
		<rect id="XMLID_982_" x="367.217" y="473.609" style="opacity:0.5;fill:#FFFFFF;" width="5.557" height="5.557"/>
		<rect id="XMLID_981_" x="427.41" y="31.476" style="opacity:0.5;fill:#FFFFFF;" width="4.614" height="4.614"/>
		<rect id="XMLID_980_" x="426.033" y="442.852" style="opacity:0.5;fill:#FFFFFF;" width="2.755" height="2.755"/>
		<rect id="XMLID_979_" x="656.776" y="180.43" style="opacity:0.5;fill:#FFFFFF;" width="5.557" height="5.557"/>
		<rect id="XMLID_978_" x="51.407" y="71.482" style="opacity:0.5;fill:#FFFFFF;" width="5.557" height="5.557"/>
		<rect id="XMLID_977_" x="599.927" y="412.773" style="opacity:0.5;fill:#FFFFFF;" width="3.378" height="3.378"/>
		<rect id="XMLID_976_" x="383.348" y="393.855" style="opacity:0.5;fill:#FFFFFF;" width="4.193" height="4.193"/>
		<rect id="XMLID_4_" x="102.295" y="328.295" style="opacity:0.5;fill:#FFFFFF;" width="4.193" height="4.193"/>
		<rect id="XMLID_975_" x="711.829" y="376.823" style="opacity:0.5;fill:#FFFFFF;" width="4.193" height="4.193"/>
		<rect id="XMLID_5_" x="147.826" y="322.319" style="opacity:0.5;fill:#FFFFFF;" width="4.193" height="4.193"/>
		<rect id="XMLID_2_" x="216.139" y="98.848" style="opacity:0.5;fill:#FFFFFF;" width="4.193" height="4.193"/>
		<rect id="XMLID_7_" x="271.981" y="302.315" style="opacity:0.5;fill:#FFFFFF;" width="4.193" height="4.193"/>
		<circle id="XMLID_971_" style="opacity:0.5;fill:#FFFFFF;" cx="19.514" cy="78.223" r="1.184"/>
		<circle id="XMLID_3_" style="opacity:0.5;fill:#FFFFFF;" cx="203.13" cy="89.609" r="1.184"/>
		<path id="XMLID_969_" style="opacity:0.5;fill:#FFFFFF;" d="M47.551,416.151c0,2.129,1.726,3.855,3.855,3.855
			c2.129,0,3.855-1.726,3.855-3.855s-1.726-3.855-3.855-3.855C49.277,412.295,47.551,414.021,47.551,416.151z"/>
		<path id="XMLID_1_" style="opacity:0.5;fill:#FFFFFF;" d="M696.748,58.485c0,2.129,1.726,3.856,3.855,3.856
			c2.129,0,3.855-1.726,3.855-3.856c0-2.129-1.726-3.855-3.855-3.855C698.474,54.63,696.748,56.356,696.748,58.485z"/>
		<path id="XMLID_8_" style="opacity:0.5;fill:#FFFFFF;" d="M393.623,193.377c0,2.129,1.726,3.855,3.855,3.855
			c2.129,0,3.855-1.726,3.855-3.855c0-2.129-1.726-3.855-3.855-3.855C395.349,189.522,393.623,191.248,393.623,193.377z"/>
		<path id="XMLID_6_" style="opacity:0.5;fill:#FFFFFF;" d="M131.058,300.556c0,2.129,1.726,3.855,3.855,3.855
			s3.855-1.726,3.855-3.855s-1.726-3.855-3.855-3.855S131.058,298.427,131.058,300.556z"/>
	</g>
	<path style="opacity:0.5;clip-path:url(#SVGID_00000063621678022431969150000002954123262580109184_);fill:#FFFFFF;" d="
		M659.555-148.071c-106.606,0-193.027,85.159-193.027,190.207s86.421,190.207,193.027,190.207s193.027-85.159,193.027-190.207
		S766.161-148.071,659.555-148.071z M659.555,229.565c-105.049,0-190.207-83.915-190.207-187.428s85.159-187.428,190.207-187.428
		S849.762-61.377,849.762,42.136S764.603,229.565,659.555,229.565z"/>
	<path style="opacity:0.5;clip-path:url(#SVGID_00000063621678022431969150000002954123262580109184_);fill:#FFFFFF;" d="
		M72.836,237.869c-88.465,0-160.18,71.715-160.18,160.18c0,88.465,71.715,160.18,160.18,160.18
		c88.465,0,160.179-71.715,160.179-160.18C233.015,309.584,161.3,237.869,72.836,237.869z M72.836,556.301
		c-87.4,0-158.252-70.852-158.252-158.252c0-87.4,70.852-158.252,158.252-158.252s158.252,70.852,158.252,158.252
		C231.088,485.449,160.236,556.301,72.836,556.301z"/>
	<path style="opacity:0.5;clip-path:url(#SVGID_00000063621678022431969150000002954123262580109184_);fill:#FFFFFF;" d="
		M-80.348,58.485c-88.465,0-160.18,71.715-160.18,160.18c0,88.465,71.715,160.179,160.18,160.179
		c88.465,0,160.18-71.715,160.18-160.179C79.832,130.2,8.117,58.485-80.348,58.485z M-80.348,376.917
		c-87.4,0-158.252-70.852-158.252-158.252c0-87.4,70.852-158.252,158.252-158.252S77.904,131.265,77.904,218.665
		C77.904,306.065,7.052,376.917-80.348,376.917z"/>
	<path style="opacity:0.5;clip-path:url(#SVGID_00000063621678022431969150000002954123262580109184_);fill:#FFFFFF;" d="
		M464.481-175.314c-88.465,0-160.18,71.715-160.18,160.18c0,88.465,71.715,160.18,160.18,160.18s160.18-71.715,160.18-160.18
		C624.661-103.599,552.946-175.314,464.481-175.314z M464.481,143.118c-87.4,0-158.252-70.852-158.252-158.252
		c0-87.4,70.852-158.252,158.252-158.252s158.252,70.852,158.252,158.252C622.733,72.266,551.881,143.118,464.481,143.118z"/>
</g>
</svg>
